# xmcd
#
# Track frame offsets: 
#        150
#        24200
#        83225
#        118237
#        150605
#        196205
#        248087
#
# Disc length: 3714 seconds
#
# Revision: 7
# Processed by: cddbd v1.5.2PL0 Copyright (c) Steve Scherf et al.
# Submitted via: ExactAudioCopy v1.0b3
#
DISCID=4d0e8007
DTITLE=Junko Onishi - Play,Piano.Play
DYEAR=1996
DGENRE=Jazz
TTITLE0=Play.Piano.Play
TTITLE1=How High The Moon
TTITLE2=Slugs
TTITLE3=Trinity
TTITLE4=Portrait In Blue
TTITLE5=Kutoubia
TTITLE6=The Junglar
EXTD=ID3G: 8
EXTT0=
EXTT1=
EXTT2=
EXTT3=
EXTT4=
EXTT5=
EXTT6=
PLAYORDER=
